<svg width="80" height="80" viewBox="0 0 80 80" fill="none" xmlns="http://www.w3.org/2000/svg">
<path d="M19.8799 72H52V66C52 63.3478 50.9464 60.8043 49.071 58.9289C47.1957 57.0536 44.6521 56 42 56H38C37.4695 56 36.9608 55.7893 36.5857 55.4142C36.2107 55.0391 36 54.5304 36 54C36 53.4696 36.2107 52.9609 36.5857 52.5858C36.9608 52.2107 37.4695 52 38 52H42C45.713 52 49.2739 53.475 51.8994 56.1005C54.525 58.726 56 62.287 56 66V72H57C58.888 72 60.5999 71.236 61.84 70H62V69.836C63.1973 68.5643 63.8628 66.8827 63.86 65.136V34.696C70.2999 34.44 74.1519 27.296 70.7119 21.744L68.704 18.504C67.9438 17.2763 66.8828 16.263 65.6213 15.5602C64.3599 14.8574 62.9399 14.4883 61.4959 14.488H55.756V11.944C55.756 11.4261 55.6539 10.9132 55.4557 10.4347C55.2575 9.95619 54.967 9.5214 54.6008 9.15517C54.2345 8.78894 53.7998 8.49842 53.3213 8.30022C52.8427 8.10201 52.3299 8 51.812 8C50.5276 8.00053 49.256 8.25401 48.0696 8.74599C46.8832 9.23797 45.8054 9.9588 44.8976 10.8673C43.9898 11.7759 43.2699 12.8543 42.7789 14.0411C42.2879 15.2278 42.0354 16.4997 42.0359 17.784V31.608C36.924 32.112 33.064 34.528 30.228 37.936C28.468 40.048 27.112 42.528 26.068 45.128C25.16 46.968 24.524 48.964 24.212 51.068L24.16 51.304C23.056 56.032 22.6679 60.736 22.5479 64.232C22.4999 65.728 22.5 67.016 22.516 68H19.8799C18.3432 68.0001 16.8399 67.5511 15.5549 66.7082C14.27 65.8653 13.2593 64.6652 12.6474 63.2556C12.0354 61.8459 11.8488 60.2881 12.1104 58.7738C12.372 57.2595 13.0705 55.8546 14.1199 54.732L17.7999 50.784C20.3362 48.0637 21.7177 44.4652 21.6536 40.7465C21.5894 37.0278 20.0846 33.4792 17.4559 30.848L13.8439 27.236C13.6595 27.045 13.4388 26.8926 13.1948 26.7878C12.9508 26.683 12.6883 26.6278 12.4228 26.6255C12.1572 26.6232 11.8938 26.6738 11.648 26.7744C11.4022 26.8749 11.1789 27.0234 10.9912 27.2112C10.8034 27.399 10.6549 27.6223 10.5543 27.8681C10.4537 28.1139 10.4031 28.3772 10.4054 28.6428C10.4078 28.9084 10.4629 29.1708 10.5677 29.4148C10.6726 29.6588 10.8249 29.8795 11.0159 30.064L14.6279 33.676C16.5256 35.573 17.6122 38.133 17.6584 40.8159C17.7047 43.4987 16.7071 46.0947 14.8759 48.056L11.1959 52.004C9.61882 53.6977 8.57017 55.8148 8.17857 58.0958C7.78696 60.3767 8.06942 62.7223 8.99131 64.8451C9.9132 66.9679 11.4345 68.7755 13.3686 70.0464C15.3027 71.3173 17.5656 71.9963 19.8799 72Z" fill="#A4A9A4"/>
</svg>
