<svg width="80" height="80" viewBox="0 0 80 80" fill="none" xmlns="http://www.w3.org/2000/svg">
<path d="M20.0801 23.3334V30H59.9334V23.3334H20.0801Z" fill="#A4A9A4"/>
<path d="M49.9333 44.9301V54.9301H59.9333V44.9301H49.9333Z" fill="#A4A9A4"/>
<path d="M6.66675 19.1667C6.66675 16.7355 7.63252 14.4039 9.3516 12.6849C11.0707 10.9658 13.4023 10 15.8334 10H64.1668C66.5979 10 68.9295 10.9658 70.6486 12.6849C72.3676 14.4039 73.3334 16.7355 73.3334 19.1667V60.8333C73.3334 63.2645 72.3676 65.5961 70.6486 67.3151C68.9295 69.0342 66.5979 70 64.1668 70H15.8334C13.4023 70 11.0707 69.0342 9.3516 67.3151C7.63252 65.5961 6.66675 63.2645 6.66675 60.8333V19.1667ZM15.0801 20.8333V32.5C15.0801 33.88 16.2001 35 17.5801 35H62.4334C63.0965 35 63.7323 34.7366 64.2012 34.2678C64.67 33.7989 64.9334 33.163 64.9334 32.5V20.8333C64.9334 20.1703 64.67 19.5344 64.2012 19.0656C63.7323 18.5967 63.0965 18.3333 62.4334 18.3333H17.5801C16.917 18.3333 16.2812 18.5967 15.8123 19.0656C15.3435 19.5344 15.0801 20.1703 15.0801 20.8333ZM44.9334 42.43V57.43C44.9334 58.81 46.0501 59.93 47.4334 59.93H62.4334C63.0965 59.93 63.7323 59.6666 64.2012 59.1978C64.67 58.7289 64.9334 58.093 64.9334 57.43V42.43C64.9334 41.767 64.67 41.1311 64.2012 40.6622C63.7323 40.1934 63.0965 39.93 62.4334 39.93H47.4334C46.7704 39.93 46.1345 40.1934 45.6656 40.6622C45.1968 41.1311 44.9334 41.767 44.9334 42.43ZM17.5801 41.6667C16.917 41.6667 16.2812 41.9301 15.8123 42.3989C15.3435 42.8677 15.0801 43.5036 15.0801 44.1667C15.0801 44.8297 15.3435 45.4656 15.8123 45.9344C16.2812 46.4033 16.917 46.6667 17.5801 46.6667H37.5001C38.1631 46.6667 38.799 46.4033 39.2678 45.9344C39.7367 45.4656 40.0001 44.8297 40.0001 44.1667C40.0001 43.5036 39.7367 42.8677 39.2678 42.3989C38.799 41.9301 38.1631 41.6667 37.5001 41.6667H17.5801ZM15.0801 55.8333C15.0801 57.2133 16.2001 58.3333 17.5801 58.3333H37.5001C38.1631 58.3333 38.799 58.0699 39.2678 57.6011C39.7367 57.1323 40.0001 56.4964 40.0001 55.8333C40.0001 55.1703 39.7367 54.5344 39.2678 54.0656C38.799 53.5967 38.1631 53.3333 37.5001 53.3333H17.5801C16.917 53.3333 16.2812 53.5967 15.8123 54.0656C15.3435 54.5344 15.0801 55.1703 15.0801 55.8333Z" fill="#A4A9A4"/>
</svg>
