<svg width="64" height="64" viewBox="0 0 64 64" fill="none" xmlns="http://www.w3.org/2000/svg">
<path d="M55 7H9C7.89375 7 7 7.89375 7 9V55C7 56.1063 7.89375 57 9 57H55C56.1063 57 57 56.1063 57 55V9C57 7.89375 56.1063 7 55 7ZM49.225 21.5938H45.2313C42.1 21.5938 41.4938 23.0812 41.4938 25.2687V30.0875H48.9688L47.9938 37.6312H41.4938V57H33.7V37.6375H27.1812V30.0875H33.7V24.525C33.7 18.0687 37.6437 14.55 43.4062 14.55C46.1688 14.55 48.5375 14.7563 49.2313 14.85V21.5938H49.225Z" fill="black"/>
</svg>
