<svg width="64" height="64" viewBox="0 0 64 64" fill="none" xmlns="http://www.w3.org/2000/svg">
<path d="M31.9998 19.1812C24.9061 19.1812 19.1811 24.9062 19.1811 31.9999C19.1811 39.0937 24.9061 44.8187 31.9998 44.8187C39.0936 44.8187 44.8186 39.0937 44.8186 31.9999C44.8186 24.9062 39.0936 19.1812 31.9998 19.1812ZM31.9998 40.3312C27.4123 40.3312 23.6686 36.5874 23.6686 31.9999C23.6686 27.4124 27.4123 23.6687 31.9998 23.6687C36.5873 23.6687 40.3311 27.4124 40.3311 31.9999C40.3311 36.5874 36.5873 40.3312 31.9998 40.3312ZM45.3436 15.6687C43.6873 15.6687 42.3498 17.0062 42.3498 18.6625C42.3498 20.3187 43.6873 21.6562 45.3436 21.6562C46.9998 21.6562 48.3373 20.325 48.3373 18.6625C48.3378 18.2692 48.2607 17.8797 48.1104 17.5162C47.9602 17.1528 47.7397 16.8225 47.4616 16.5444C47.1835 16.2664 46.8533 16.0459 46.4898 15.8956C46.1264 15.7453 45.7369 15.6682 45.3436 15.6687ZM56.9873 31.9999C56.9873 28.5499 57.0186 25.1312 56.8248 21.6874C56.6311 17.6875 55.7186 14.1375 52.7936 11.2125C49.8623 8.2812 46.3186 7.37495 42.3186 7.1812C38.8686 6.98745 35.4498 7.0187 32.0061 7.0187C28.5561 7.0187 25.1373 6.98745 21.6936 7.1812C17.6936 7.37495 14.1436 8.28745 11.2186 11.2125C8.28731 14.1437 7.38106 17.6875 7.18731 21.6874C6.99356 25.1374 7.02481 28.5562 7.02481 31.9999C7.02481 35.4437 6.99356 38.8687 7.18731 42.3124C7.38106 46.3124 8.29356 49.8624 11.2186 52.7874C14.1498 55.7187 17.6936 56.6249 21.6936 56.8187C25.1436 57.0124 28.5623 56.9812 32.0061 56.9812C35.4561 56.9812 38.8748 57.0124 42.3186 56.8187C46.3186 56.6249 49.8686 55.7124 52.7936 52.7874C55.7248 49.8562 56.6311 46.3124 56.8248 42.3124C57.0248 38.8687 56.9873 35.4499 56.9873 31.9999ZM51.4873 46.7374C51.0311 47.8749 50.4811 48.7249 49.5998 49.5999C48.7186 50.4812 47.8748 51.0312 46.7373 51.4874C43.4498 52.7937 35.6436 52.4999 31.9998 52.4999C28.3561 52.4999 20.5436 52.7937 17.2561 51.4937C16.1186 51.0374 15.2686 50.4874 14.3936 49.6062C13.5123 48.7249 12.9623 47.8812 12.5061 46.7437C11.2061 43.4499 11.4998 35.6437 11.4998 31.9999C11.4998 28.3562 11.2061 20.5437 12.5061 17.2562C12.9623 16.1187 13.5123 15.2687 14.3936 14.3937C15.2748 13.5187 16.1186 12.9625 17.2561 12.5062C20.5436 11.2062 28.3561 11.5 31.9998 11.5C35.6436 11.5 43.4561 11.2062 46.7436 12.5062C47.8811 12.9625 48.7311 13.5125 49.6061 14.3937C50.4873 15.275 51.0373 16.1187 51.4936 17.2562C52.7936 20.5437 52.4998 28.3562 52.4998 31.9999C52.4998 35.6437 52.7936 43.4499 51.4873 46.7374Z" fill="black"/>
</svg>
