<svg width="80" height="80" viewBox="0 0 80 80" fill="none" xmlns="http://www.w3.org/2000/svg">
<path d="M15.0001 40C19.6025 40 23.3334 36.2691 23.3334 31.6667C23.3334 27.0643 19.6025 23.3334 15.0001 23.3334C10.3977 23.3334 6.66675 27.0643 6.66675 31.6667C6.66675 36.2691 10.3977 40 15.0001 40Z" fill="#A4A9A4"/>
<path d="M30.0001 26.6667C34.6025 26.6667 38.3334 22.9357 38.3334 18.3333C38.3334 13.731 34.6025 10 30.0001 10C25.3977 10 21.6667 13.731 21.6667 18.3333C21.6667 22.9357 25.3977 26.6667 30.0001 26.6667Z" fill="#A4A9A4"/>
<path d="M50.0001 26.6667C54.6025 26.6667 58.3334 22.9357 58.3334 18.3333C58.3334 13.731 54.6025 10 50.0001 10C45.3977 10 41.6667 13.731 41.6667 18.3333C41.6667 22.9357 45.3977 26.6667 50.0001 26.6667Z" fill="#A4A9A4"/>
<path d="M65.0001 40C69.6025 40 73.3334 36.2691 73.3334 31.6667C73.3334 27.0643 69.6025 23.3334 65.0001 23.3334C60.3977 23.3334 56.6667 27.0643 56.6667 31.6667C56.6667 36.2691 60.3977 40 65.0001 40Z" fill="#A4A9A4"/>
<path d="M57.8001 49.5333C54.9001 46.1333 52.4667 43.2333 49.5334 39.8333C48.0001 38.0333 46.0334 36.2333 43.7001 35.4333C43.3334 35.3 42.9667 35.2 42.6001 35.1333C41.7667 35 40.8667 35 40.0001 35C39.1334 35 38.2334 35 37.3667 35.1667C37.0001 35.2333 36.6334 35.3333 36.2667 35.4667C33.9334 36.2667 32.0001 38.0667 30.4334 39.8667C27.5334 43.2667 25.1001 46.1667 22.1667 49.5667C17.8001 53.9333 12.4334 58.7667 13.4334 65.5333C14.4001 68.9333 16.8334 72.3 21.2001 73.2667C23.6334 73.7667 31.4001 71.8 39.6667 71.8H40.2667C48.5334 71.8 56.3001 73.7333 58.7334 73.2667C63.1001 72.3 65.5334 68.9 66.5001 65.5333C67.5334 58.7333 62.1667 53.9 57.8001 49.5333Z" fill="#A4A9A4"/>
</svg>
